G04 Generated by Ultiboard 14.1 *
%FSLAX24Y24*%
%MOIN*%

%ADD10C,0.0001*%
%ADD11C,0.0100*%
%ADD12C,0.0450*%
%ADD13C,0.0633*%
%ADD14R,0.0208X0.0208*%
%ADD15C,0.0392*%
%ADD16C,0.0500*%
%ADD17R,0.0417X0.0108*%
%ADD18C,0.0167*%


G04 ColorRGB 0000FF for the following layer *
%LNCopper Bottom*%
%LPD*%
G54D10*
G36*
X7349Y17349D02*
X7349Y17349D01*
X151Y17349D01*
X151Y151D01*
X7349Y151D01*
X7349Y17349D01*
D02*
G37*
%LPC*%
G36*
X1190Y9156D02*
G75*
D01*
G02X906Y9440I-440J-156*
G01*
X906Y9440D01*
X4516Y13050D01*
X4516Y14854D01*
G75*
D01*
G02X4918Y14854I201J346*
G01*
X4918Y14854D01*
X4918Y12967D01*
G75*
D01*
G02X4859Y12825I-201J0*
G01*
X4859Y12825D01*
X4859Y12825D01*
X1190Y9156D01*
D02*
G37*
G36*
X7109Y9298D02*
G75*
D01*
G02X7109Y9298I-359J-298*
G01*
D02*
G37*
G36*
X2599Y14854D02*
G75*
D01*
G02X3001Y14854I201J346*
G01*
X3001Y14854D01*
X3001Y12050D01*
G75*
D01*
G02X2942Y11908I-201J0*
G01*
X2942Y11908D01*
X1190Y10156D01*
G75*
D01*
G02X906Y10440I-440J-156*
G01*
X906Y10440D01*
X2599Y12133D01*
X2599Y14854D01*
D02*
G37*
G36*
X6283Y10000D02*
G75*
D01*
G02X6283Y10000I467J0*
G01*
D02*
G37*
G36*
X575Y11000D02*
G75*
D01*
G02X575Y11000I175J0*
G01*
D02*
G37*
G36*
X585Y10564D02*
G74*
D01*
G02X314Y10835I165J436*
G01*
X314Y10835D01*
X585Y10835D01*
X585Y10564D01*
D02*
G37*
G36*
X1186Y10835D02*
G74*
D01*
G02X915Y10564I436J165*
G01*
X915Y10564D01*
X915Y10835D01*
X1186Y10835D01*
D02*
G37*
G36*
X6283Y11000D02*
G75*
D01*
G02X6283Y11000I467J0*
G01*
D02*
G37*
G36*
X283Y12000D02*
G75*
D01*
G02X283Y12000I467J0*
G01*
D02*
G37*
G36*
X314Y11165D02*
G74*
D01*
G02X585Y11436I436J165*
G01*
X585Y11436D01*
X585Y11165D01*
X314Y11165D01*
D02*
G37*
G36*
X915Y11436D02*
G74*
D01*
G02X1186Y11165I165J436*
G01*
X1186Y11165D01*
X915Y11165D01*
X915Y11436D01*
D02*
G37*
G36*
X6283Y12000D02*
G75*
D01*
G02X6283Y12000I467J0*
G01*
D02*
G37*
G36*
X585Y12564D02*
G74*
D01*
G02X314Y12835I165J436*
G01*
X314Y12835D01*
X585Y12835D01*
X585Y12564D01*
D02*
G37*
G36*
X1186Y12835D02*
G74*
D01*
G02X915Y12564I436J165*
G01*
X915Y12564D01*
X915Y12835D01*
X1186Y12835D01*
D02*
G37*
G36*
X5150Y11940D02*
X5150Y11940D01*
X5400Y12103D01*
X5650Y11940D01*
G74*
D01*
G02X5608Y11936I42J231*
G01*
X5608Y11936D01*
X5192Y11936D01*
G75*
D01*
G02X5150Y11940I0J235*
G01*
D02*
G37*
G36*
X5650Y12510D02*
X5650Y12510D01*
X5400Y12347D01*
X5150Y12510D01*
G75*
D01*
G02X5192Y12514I42J-231*
G01*
X5192Y12514D01*
X5608Y12514D01*
G74*
D01*
G02X5650Y12510I0J235*
G01*
D02*
G37*
G36*
X4979Y12377D02*
X4979Y12377D01*
X5213Y12225D01*
X4979Y12073D01*
G75*
D01*
G02X4957Y12171I213J98*
G01*
X4957Y12171D01*
X4957Y12279D01*
G74*
D01*
G02X4979Y12377I235J0*
G01*
D02*
G37*
G36*
X5791Y13176D02*
X5791Y13176D01*
X6318Y13176D01*
G75*
D01*
G02X6342Y12774I432J-176*
G01*
X6342Y12774D01*
X5791Y12774D01*
G74*
D01*
G02X5608Y12686I183J147*
G01*
X5608Y12686D01*
X5192Y12686D01*
G75*
D01*
G02X4957Y12921I0J235*
G01*
X4957Y12921D01*
X4957Y13029D01*
G75*
D01*
G02X5192Y13264I235J0*
G01*
X5192Y13264D01*
X5608Y13264D01*
G74*
D01*
G02X5791Y13176I0J235*
G01*
D02*
G37*
G36*
X5821Y12377D02*
G74*
D01*
G02X5843Y12279I213J98*
G01*
X5843Y12279D01*
X5843Y12171D01*
G75*
D01*
G02X5821Y12073I-235J0*
G01*
X5821Y12073D01*
X5587Y12225D01*
X5821Y12377D01*
D02*
G37*
G36*
X314Y13165D02*
G74*
D01*
G02X585Y13436I436J165*
G01*
X585Y13436D01*
X585Y13165D01*
X314Y13165D01*
D02*
G37*
G36*
X575Y13000D02*
G75*
D01*
G02X575Y13000I175J0*
G01*
D02*
G37*
G36*
X915Y13436D02*
G74*
D01*
G02X1186Y13165I165J436*
G01*
X1186Y13165D01*
X915Y13165D01*
X915Y13436D01*
D02*
G37*
G36*
X283Y14000D02*
G75*
D01*
G02X283Y14000I467J0*
G01*
D02*
G37*
G36*
X6283Y14000D02*
G75*
D01*
G02X6283Y14000I467J0*
G01*
D02*
G37*
G36*
X283Y15000D02*
G75*
D01*
G02X283Y15000I467J0*
G01*
D02*
G37*
G36*
X6283Y15000D02*
G75*
D01*
G02X6283Y15000I467J0*
G01*
D02*
G37*
G36*
X854Y16452D02*
G74*
D01*
G02X1202Y16104I0J348*
G01*
X1202Y16104D01*
X1202Y15896D01*
G75*
D01*
G02X854Y15548I-348J0*
G01*
X854Y15548D01*
X646Y15548D01*
G75*
D01*
G02X298Y15896I0J348*
G01*
X298Y15896D01*
X298Y16104D01*
G75*
D01*
G02X646Y16452I348J0*
G01*
X646Y16452D01*
X854Y16452D01*
D02*
G37*
G36*
X6283Y16000D02*
G75*
D01*
G02X6283Y16000I467J0*
G01*
D02*
G37*
G36*
X3333Y9251D02*
G74*
D01*
G02X3551Y9033I133J351*
G01*
X3551Y9033D01*
X3333Y9033D01*
X3333Y9251D01*
D02*
G37*
G36*
X283Y1000D02*
G75*
D01*
G02X283Y1000I467J0*
G01*
D02*
G37*
G36*
X6646Y548D02*
G75*
D01*
G02X6298Y896I0J348*
G01*
X6298Y896D01*
X6298Y1104D01*
G75*
D01*
G02X6646Y1452I348J0*
G01*
X6646Y1452D01*
X6854Y1452D01*
G74*
D01*
G02X7202Y1104I0J348*
G01*
X7202Y1104D01*
X7202Y896D01*
G75*
D01*
G02X6854Y548I-348J0*
G01*
X6854Y548D01*
X6646Y548D01*
D02*
G37*
G36*
X283Y2000D02*
G75*
D01*
G02X283Y2000I467J0*
G01*
D02*
G37*
G36*
X7186Y1835D02*
G74*
D01*
G02X6915Y1564I436J165*
G01*
X6915Y1564D01*
X6915Y1835D01*
X7186Y1835D01*
D02*
G37*
G36*
X6585Y1564D02*
G74*
D01*
G02X6314Y1835I165J436*
G01*
X6314Y1835D01*
X6585Y1835D01*
X6585Y1564D01*
D02*
G37*
G36*
X6314Y2165D02*
G74*
D01*
G02X6585Y2436I436J165*
G01*
X6585Y2436D01*
X6585Y2165D01*
X6314Y2165D01*
D02*
G37*
G36*
X6915Y2436D02*
G74*
D01*
G02X7186Y2165I165J436*
G01*
X7186Y2165D01*
X6915Y2165D01*
X6915Y2436D01*
D02*
G37*
G36*
X6575Y2000D02*
G75*
D01*
G02X6575Y2000I175J0*
G01*
D02*
G37*
G36*
X283Y3000D02*
G75*
D01*
G02X283Y3000I467J0*
G01*
D02*
G37*
G36*
X6283Y3000D02*
G75*
D01*
G02X6283Y3000I467J0*
G01*
D02*
G37*
G36*
X283Y4000D02*
G75*
D01*
G02X283Y4000I467J0*
G01*
D02*
G37*
G36*
X6283Y4000D02*
G75*
D01*
G02X6283Y4000I467J0*
G01*
D02*
G37*
G36*
X283Y5000D02*
G75*
D01*
G02X283Y5000I467J0*
G01*
D02*
G37*
G36*
X6283Y5000D02*
G75*
D01*
G02X6283Y5000I467J0*
G01*
D02*
G37*
G36*
X283Y6000D02*
G75*
D01*
G02X283Y6000I467J0*
G01*
D02*
G37*
G36*
X6283Y6000D02*
G75*
D01*
G02X6283Y6000I467J0*
G01*
D02*
G37*
G36*
X283Y7000D02*
G75*
D01*
G02X283Y7000I467J0*
G01*
D02*
G37*
G36*
X6283Y7000D02*
G75*
D01*
G02X6283Y7000I467J0*
G01*
D02*
G37*
G36*
X283Y8000D02*
G75*
D01*
G02X283Y8000I467J0*
G01*
D02*
G37*
G36*
X6283Y8000D02*
G75*
D01*
G02X6283Y8000I467J0*
G01*
D02*
G37*
G36*
X3067Y8549D02*
G74*
D01*
G02X2849Y8767I133J351*
G01*
X2849Y8767D01*
X3067Y8767D01*
X3067Y8549D01*
D02*
G37*
G36*
X3551Y8767D02*
G74*
D01*
G02X3333Y8549I351J133*
G01*
X3333Y8549D01*
X3333Y8767D01*
X3551Y8767D01*
D02*
G37*
G36*
X3075Y8900D02*
G75*
D01*
G02X3075Y8900I125J0*
G01*
D02*
G37*
G36*
X2849Y9033D02*
G74*
D01*
G02X3067Y9251I351J133*
G01*
X3067Y9251D01*
X3067Y9033D01*
X2849Y9033D01*
D02*
G37*
%LPD*%
G54D11*
X1190Y9156D02*
G75*
D01*
G02X906Y9440I-440J-156*
G01*
X4516Y13050D01*
X4516Y14854D01*
G75*
D01*
G02X4918Y14854I201J346*
G01*
X4918Y12967D01*
G75*
D01*
G02X4859Y12825I-201J0*
G01*
X4859Y12825D01*
X1190Y9156D01*
X7109Y9298D02*
G75*
D01*
G02X7109Y9298I-359J-298*
G01*
X2599Y14854D02*
G75*
D01*
G02X3001Y14854I201J346*
G01*
X3001Y12050D01*
G75*
D01*
G02X2942Y11908I-201J0*
G01*
X1190Y10156D01*
G75*
D01*
G02X906Y10440I-440J-156*
G01*
X2599Y12133D01*
X2599Y14854D01*
X6283Y10000D02*
G75*
D01*
G02X6283Y10000I467J0*
G01*
X575Y11000D02*
G75*
D01*
G02X575Y11000I175J0*
G01*
X585Y10564D02*
G74*
D01*
G02X314Y10835I165J436*
G01*
X585Y10835D01*
X585Y10564D01*
X1186Y10835D02*
G74*
D01*
G02X915Y10564I436J165*
G01*
X915Y10835D01*
X1186Y10835D01*
X6283Y11000D02*
G75*
D01*
G02X6283Y11000I467J0*
G01*
X283Y12000D02*
G75*
D01*
G02X283Y12000I467J0*
G01*
X314Y11165D02*
G74*
D01*
G02X585Y11436I436J165*
G01*
X585Y11165D01*
X314Y11165D01*
X915Y11436D02*
G74*
D01*
G02X1186Y11165I165J436*
G01*
X915Y11165D01*
X915Y11436D01*
X6283Y12000D02*
G75*
D01*
G02X6283Y12000I467J0*
G01*
X585Y12564D02*
G74*
D01*
G02X314Y12835I165J436*
G01*
X585Y12835D01*
X585Y12564D01*
X1186Y12835D02*
G74*
D01*
G02X915Y12564I436J165*
G01*
X915Y12835D01*
X1186Y12835D01*
X5150Y11940D02*
X5400Y12103D01*
X5650Y11940D01*
G74*
D01*
G02X5608Y11936I42J231*
G01*
X5192Y11936D01*
G75*
D01*
G02X5150Y11940I0J235*
G01*
X5650Y12510D02*
X5400Y12347D01*
X5150Y12510D01*
G75*
D01*
G02X5192Y12514I42J-231*
G01*
X5608Y12514D01*
G74*
D01*
G02X5650Y12510I0J235*
G01*
X4979Y12377D02*
X5213Y12225D01*
X4979Y12073D01*
G75*
D01*
G02X4957Y12171I213J98*
G01*
X4957Y12279D01*
G74*
D01*
G02X4979Y12377I235J0*
G01*
X5791Y13176D02*
X6318Y13176D01*
G75*
D01*
G02X6342Y12774I432J-176*
G01*
X5791Y12774D01*
G74*
D01*
G02X5608Y12686I183J147*
G01*
X5192Y12686D01*
G75*
D01*
G02X4957Y12921I0J235*
G01*
X4957Y13029D01*
G75*
D01*
G02X5192Y13264I235J0*
G01*
X5608Y13264D01*
G74*
D01*
G02X5791Y13176I0J235*
G01*
X5821Y12377D02*
G74*
D01*
G02X5843Y12279I213J98*
G01*
X5843Y12171D01*
G75*
D01*
G02X5821Y12073I-235J0*
G01*
X5587Y12225D01*
X5821Y12377D01*
X314Y13165D02*
G74*
D01*
G02X585Y13436I436J165*
G01*
X585Y13165D01*
X314Y13165D01*
X575Y13000D02*
G75*
D01*
G02X575Y13000I175J0*
G01*
X915Y13436D02*
G74*
D01*
G02X1186Y13165I165J436*
G01*
X915Y13165D01*
X915Y13436D01*
X283Y14000D02*
G75*
D01*
G02X283Y14000I467J0*
G01*
X6283Y14000D02*
G75*
D01*
G02X6283Y14000I467J0*
G01*
X283Y15000D02*
G75*
D01*
G02X283Y15000I467J0*
G01*
X6283Y15000D02*
G75*
D01*
G02X6283Y15000I467J0*
G01*
X854Y16452D02*
G74*
D01*
G02X1202Y16104I0J348*
G01*
X1202Y15896D01*
G75*
D01*
G02X854Y15548I-348J0*
G01*
X646Y15548D01*
G75*
D01*
G02X298Y15896I0J348*
G01*
X298Y16104D01*
G75*
D01*
G02X646Y16452I348J0*
G01*
X854Y16452D01*
X6283Y16000D02*
G75*
D01*
G02X6283Y16000I467J0*
G01*
X3333Y9251D02*
G74*
D01*
G02X3551Y9033I133J351*
G01*
X3333Y9033D01*
X3333Y9251D01*
X283Y1000D02*
G75*
D01*
G02X283Y1000I467J0*
G01*
X6646Y548D02*
G75*
D01*
G02X6298Y896I0J348*
G01*
X6298Y1104D01*
G75*
D01*
G02X6646Y1452I348J0*
G01*
X6854Y1452D01*
G74*
D01*
G02X7202Y1104I0J348*
G01*
X7202Y896D01*
G75*
D01*
G02X6854Y548I-348J0*
G01*
X6646Y548D01*
X283Y2000D02*
G75*
D01*
G02X283Y2000I467J0*
G01*
X7186Y1835D02*
G74*
D01*
G02X6915Y1564I436J165*
G01*
X6915Y1835D01*
X7186Y1835D01*
X6585Y1564D02*
G74*
D01*
G02X6314Y1835I165J436*
G01*
X6585Y1835D01*
X6585Y1564D01*
X6314Y2165D02*
G74*
D01*
G02X6585Y2436I436J165*
G01*
X6585Y2165D01*
X6314Y2165D01*
X6915Y2436D02*
G74*
D01*
G02X7186Y2165I165J436*
G01*
X6915Y2165D01*
X6915Y2436D01*
X6575Y2000D02*
G75*
D01*
G02X6575Y2000I175J0*
G01*
X283Y3000D02*
G75*
D01*
G02X283Y3000I467J0*
G01*
X6283Y3000D02*
G75*
D01*
G02X6283Y3000I467J0*
G01*
X283Y4000D02*
G75*
D01*
G02X283Y4000I467J0*
G01*
X6283Y4000D02*
G75*
D01*
G02X6283Y4000I467J0*
G01*
X283Y5000D02*
G75*
D01*
G02X283Y5000I467J0*
G01*
X6283Y5000D02*
G75*
D01*
G02X6283Y5000I467J0*
G01*
X283Y6000D02*
G75*
D01*
G02X283Y6000I467J0*
G01*
X6283Y6000D02*
G75*
D01*
G02X6283Y6000I467J0*
G01*
X283Y7000D02*
G75*
D01*
G02X283Y7000I467J0*
G01*
X6283Y7000D02*
G75*
D01*
G02X6283Y7000I467J0*
G01*
X283Y8000D02*
G75*
D01*
G02X283Y8000I467J0*
G01*
X6283Y8000D02*
G75*
D01*
G02X6283Y8000I467J0*
G01*
X3067Y8549D02*
G74*
D01*
G02X2849Y8767I133J351*
G01*
X3067Y8767D01*
X3067Y8549D01*
X3551Y8767D02*
G74*
D01*
G02X3333Y8549I351J133*
G01*
X3333Y8767D01*
X3551Y8767D01*
X3075Y8900D02*
G75*
D01*
G02X3075Y8900I125J0*
G01*
X2849Y9033D02*
G74*
D01*
G02X3067Y9251I351J133*
G01*
X3067Y9033D01*
X2849Y9033D01*
X7349Y17349D02*
X151Y17349D01*
X151Y151D01*
X7349Y151D01*
X7349Y17349D01*
X4717Y15200D02*
X4717Y12967D01*
X750Y9000D01*
X2800Y15200D02*
X2800Y12050D01*
X750Y10000D01*
X5400Y12975D02*
X6725Y12975D01*
X6750Y13000D01*
G54D12*
X3200Y8900D03*
G54D13*
X6750Y13000D03*
X6750Y5000D03*
X6750Y2000D03*
X6750Y4000D03*
X6750Y3000D03*
X6750Y8000D03*
X6750Y7000D03*
X6750Y6000D03*
X6750Y10000D03*
X6750Y9000D03*
X6750Y11000D03*
X6750Y15000D03*
X6750Y12000D03*
X6750Y14000D03*
X6750Y16000D03*
X750Y12000D03*
X750Y15000D03*
X750Y13000D03*
X750Y14000D03*
X750Y9000D03*
X750Y10000D03*
X750Y11000D03*
X750Y7000D03*
X750Y8000D03*
X750Y6000D03*
X750Y2000D03*
X750Y4000D03*
X750Y5000D03*
X750Y3000D03*
X750Y1000D03*
G54D14*
X6750Y1000D03*
X750Y16000D03*
G54D15*
X6646Y896D02*
X6854Y896D01*
X6854Y1104D01*
X6646Y1104D01*
X6646Y896D01*D02*
X646Y15896D02*
X854Y15896D01*
X854Y16104D01*
X646Y16104D01*
X646Y15896D01*D02*
G54D16*
X2800Y15200D03*
X4717Y15200D03*
G54D17*
X5400Y12225D03*
X5400Y12975D03*
G54D18*
X5192Y12171D02*
X5608Y12171D01*
X5608Y12279D01*
X5192Y12279D01*
X5192Y12171D01*D02*
X5192Y12921D02*
X5608Y12921D01*
X5608Y13029D01*
X5192Y13029D01*
X5192Y12921D01*D02*

M02*
