M48
INCH,TZ
VER,1
FMAT,2
DETECT,ON
ATC,ON
T1C0.0250
T2C0.0350
T3C0.0392
%
T1
X3200Y8900
T2
X6750Y13000
Y5000
Y2000
Y4000
Y3000
Y8000
Y7000
Y6000
Y10000
Y9000
Y11000
Y15000
Y12000
Y14000
Y16000
X750Y12000
Y15000
Y13000
Y14000
Y9000
Y10000
Y11000
Y7000
Y8000
Y6000
Y2000
Y4000
Y5000
Y3000
Y1000
X2800Y15200
X4717
T3
X6750Y1000
X750Y16000
M30
